<?xml version="1.0" encoding="UTF-8"?>
<svg width="677px" height="267px" viewBox="0 0 677 267" version="1.1" xmlns="http://www.w3.org/2000/svg" xmlns:xlink="http://www.w3.org/1999/xlink">
    <!-- Generator: Sketch 55.2 (78181) - https://sketchapp.com -->
    <title>Artboard</title>
    <desc>Created with Sketch.</desc>
    <defs>
        <radialGradient cx="50.019674%" cy="49.956099%" fx="50.019674%" fy="49.956099%" r="54.8076214%" gradientTransform="translate(0.500197,0.499561),scale(0.830900,1.000000),translate(-0.500197,-0.499561)" id="radialGradient-1">
            <stop stop-color="#FFFFFF" stop-opacity="0.922421329" offset="0%"></stop>
            <stop stop-color="#FDAC00" stop-opacity="0.210336538" offset="61.077386%"></stop>
            <stop stop-color="#FD9300" stop-opacity="0" offset="100%"></stop>
        </radialGradient>
        <radialGradient cx="50.019674%" cy="49.956099%" fx="50.019674%" fy="49.956099%" r="46.0597891%" gradientTransform="translate(0.500197,0.499561),scale(0.988708,1.000000),translate(-0.500197,-0.499561)" id="radialGradient-2">
            <stop stop-color="#FFFFFF" stop-opacity="0.922421329" offset="0%"></stop>
            <stop stop-color="#FDAC00" stop-opacity="0.210336538" offset="61.077386%"></stop>
            <stop stop-color="#FD9300" stop-opacity="0" offset="100%"></stop>
        </radialGradient>
    </defs>
    <g id="Artboard" stroke="none" stroke-width="1" fill="none" fill-rule="evenodd">
        <g id="logo" transform="translate(0.000000, -1.000000)" fill-rule="nonzero">

           
            <path d="M673.2,170.8 C667.7,167.4 651.1,162.1 623.2,157.3 C587,151.1 545.9,166.4 536.3,170.3 C518.9,177.5 507.8,177.1 507.8,177.1 C507.8,177.1 496.7,177.5 479.3,170.3 C469.8,166.4 432.2,151.1 396,157.3 C368.1,162.1 351.5,167.4 346,170.8 C344.5,171.7 342.3,173.4 342.3,175.1 C342.4,180.3 342.2,190.5 344.1,190.9 C345.7,191.2 348,192.8 350.1,195.7 C352.5,195.4 355.1,195.3 357.7,195.2 C357.5,189.6 358.1,185.4 359,182.2 C360.9,175.1 366.1,172.5 382.3,167.1 C401.2,160.8 440.9,158.8 468.6,173.1 C496.6,187.6 482.8,218.7 482.8,218.7 C482.8,218.7 476.9,236.7 461.7,249.7 C455,255.4 444.6,259.7 435.8,260.9 C419.4,263.1 401.9,262.3 387.8,254.7 L377.6,254.7 C380.8,257.3 384.5,259.6 388.7,261.2 C417.2,272 447.6,266.5 461.3,256.8 C493.2,234.1 493.2,202.9 494.6,199 C496,195.1 498.9,192.8 501.6,191.5 C505.4,189.6 509.8,189.6 513.6,191.5 C516.3,192.9 519.2,195.2 520.6,199 C522,202.9 522.1,234.1 553.9,256.8 C567.6,266.6 598,272.1 626.5,261.2 C655,250.4 660.1,211 661.4,204.7 C663.1,196.3 668.4,191.6 671.2,191 C673.2,190.6 676.5,180.5 676.6,175.2 C676.9,173.4 674.7,171.7 673.2,170.8 Z M650.7,227 C638.9,259.7 607.7,264.6 579.7,260.8 C570.9,259.6 560.5,255.3 553.8,249.6 C538.6,236.6 532.7,218.6 532.7,218.6 C532.7,218.6 519,187.4 546.9,173 C574.6,158.7 617.9,160.8 636.7,167 C653,172.4 654.6,175 656.5,182.1 C658.7,189.9 659.5,202.7 650.7,227 Z" id="Shape" fill="#FFFFFF"></path>
          
        </g>
    </g>
</svg>